# xmcd
#
# Track frame offsets:
#	150
#	34112
#	77105
#	115682
#
# Disc length: 2054 seconds
#
# Revision: 0
# Processed by: cddbd v1.4PL0 Copyright (c) Steve Scherf et al.
# Submitted via: audiograbber 1.80.04
#
DISCID=26080404
DTITLE=C'est Noel On Danse! - C'est Noel On Danse!
DYEAR=1900
DGENRE=Classical
TTITLE0=Cocktail Réveillon
TTITLE1=Cocktail Père Noel
TTITLE2=Cocktail Nez Rouge
TTITLE3=Cocktail Féerique
EXTD=
EXTT0=
EXTT1=
EXTT2=
EXTT3=
PLAYORDER=
